<svg id="Capa_1" data-name="Capa 1" xmlns="http://www.w3.org/2000/svg" viewBox="0 0 1496.69 1284.01"><defs><style>.cls-1{fill:#002e02;}</style></defs><title>CodingLeonardo Color Negativo</title><polygon class="cls-1" points="160.16 1032.62 160.07 1032.88 108.4 997.19 160.16 1032.62"/><polygon class="cls-1" points="108.4 997.19 160.07 1032.88 160.16 1032.62 108.4 997.19 108.4 997.19"/><path class="cls-1" d="M744.82,1615.8a34.33,34.33,0,0,1-19.44-6.08L411.23,1394.87l-144.9-99.17-.44-.31a34.54,34.54,0,0,1-11.16-43.31L671.14,389.91A19.54,19.54,0,0,1,689,379a20.44,20.44,0,0,1,16.86,8.69l83,117a34.81,34.81,0,0,1,3.52,33.83L520.27,1165.25a35.8,35.8,0,0,0,12,43.18L783.63,1388A34.67,34.67,0,0,1,797.92,1420l-18.59,165A34.67,34.67,0,0,1,744.82,1615.8Z" transform="translate(-250.78 -362.67)"/><path class="cls-1" d="M689,378.53v1h0A19.94,19.94,0,0,1,705.46,388l83,117a34.3,34.3,0,0,1,3.47,33.34L519.81,1165.06A36.31,36.31,0,0,0,532,1208.84l251.38,179.52A34.14,34.14,0,0,1,797.42,1420l-18.59,165a34.16,34.16,0,0,1-34,30.34,33.8,33.8,0,0,1-19.16-6L411.51,1394.46,266.62,1295.3l-.44-.32a34,34,0,0,1-11-42.68l5.38-11.14,411-851A19,19,0,0,1,689,379.53v-1m0,0a20.07,20.07,0,0,0-18.32,11.16l-411,851-5.38,11.13a35.15,35.15,0,0,0,11.32,43.94l.45.31L411,1395.28,725.1,1610.13a34.68,34.68,0,0,0,19.72,6.17,35.15,35.15,0,0,0,35-31.23l18.59-165a35.12,35.12,0,0,0-14.5-32.51L532.54,1208a35.13,35.13,0,0,1-11.81-42.58L792.84,538.71a35.11,35.11,0,0,0-3.57-34.31l-83-117a21,21,0,0,0-17.26-8.9Z" transform="translate(-250.78 -362.67)"/><path class="cls-1" d="M1053.69,1646.18l-.93,0-146.53-6.29a21.42,21.42,0,0,1-20.08-25.59L1133.08,380.4a21.39,21.39,0,0,1,32.69-13.74l102.06,66.52a21.42,21.42,0,0,1,9.41,21.58L1074.77,1628.41a21.34,21.34,0,0,1-21.08,17.77Z" transform="translate(-250.78 -362.67)"/><path class="cls-1" d="M1154.13,363.67a20.8,20.8,0,0,1,11.37,3.41l102.06,66.52a20.91,20.91,0,0,1,9.19,21.07L1074.28,1628.32a20.86,20.86,0,0,1-20.59,17.36l-.91,0-146.53-6.29a20.9,20.9,0,0,1-19.61-25L1133.58,380.49a21,21,0,0,1,20.55-16.82m0-1a21.92,21.92,0,0,0-21.54,17.63L885.66,1614.18a21.91,21.91,0,0,0,20.54,26.19l146.54,6.29,1,0a21.91,21.91,0,0,0,21.58-18.19L1277.73,454.84a21.91,21.91,0,0,0-9.63-22.08L1166,366.24a21.73,21.73,0,0,0-11.91-3.57Z" transform="translate(-250.78 -362.67)"/><polygon class="cls-1" points="1422.37 194.63 1416.69 189.13 1416.78 188.95 1422.37 194.63"/><polygon class="cls-1" points="1416.78 188.95 1416.69 189.13 1422.37 194.63 1416.78 188.95 1416.78 188.95"/><path class="cls-1" d="M1458.91,1638.77a32.61,32.61,0,0,1-28-16.06L1198.22,1225.6a32.64,32.64,0,0,1,2.36-34.66l5.09-7,362.25-495.3a33.6,33.6,0,0,0-3.84-43.93L1409.83,496.66a32.68,32.68,0,0,1-4-42.26l42.86-60.28a32.5,32.5,0,0,1,49-4.61l169.44,162.65,5.68,5.5,64.8,65.69a32.36,32.36,0,0,1,3.1,42l-64.32,88L1368.9,1173.76a33.63,33.63,0,0,0-2.42,35.72L1573,1590.81a32.48,32.48,0,0,1-28.57,48Z" transform="translate(-250.78 -362.67)"/><path class="cls-1" d="M1475.21,380v1a31.86,31.86,0,0,1,22.13,8.91l169.44,162.65,5.67,5.49,64.81,65.69a31.87,31.87,0,0,1,3,41.35L1676,753l-307.5,420.44a34.15,34.15,0,0,0-2.45,36.26l206.52,381.33a32,32,0,0,1-28.13,47.22h-85.52a32.09,32.09,0,0,1-27.6-15.82l-232.64-397.07a32.14,32.14,0,0,1,2.31-34.14l5.1-7L1568.32,689a34.1,34.1,0,0,0-3.89-44.58L1410.18,496.3a32,32,0,0,1-3.92-41.62l42.86-60.27A32.07,32.07,0,0,1,1475.21,381v-1m0,0a32.91,32.91,0,0,0-26.91,13.87l-42.86,60.28a33,33,0,0,0,4,42.91l154.25,148.09a33,33,0,0,1,3.78,43.27l-362.24,495.3-5.1,7a33,33,0,0,0-2.38,35.2L1430.44,1623a33,33,0,0,0,28.47,16.31h85.52a33,33,0,0,0,29-48.7l-206.52-381.33a33,33,0,0,1,2.38-35.19l307.5-420.44,64.32-88A33,33,0,0,0,1738,623l-64.81-65.7-5.69-5.5L1498,389.15a32.81,32.81,0,0,0-22.82-9.19Z" transform="translate(-250.78 -362.67)"/><polygon class="cls-1" points="937.59 844.12 937.06 844.83 936.88 844.47 937.59 844.12"/><polygon class="cls-1" points="937.59 844.12 936.88 844.47 937.06 844.83 937.59 844.12 937.59 844.12"/></svg>