<svg width="51" height="52" viewBox="0 0 51 52" fill="none" xmlns="http://www.w3.org/2000/svg">
<ellipse cx="25.3827" cy="25.7653" rx="25.3827" ry="25.7653" fill="white"/>
<path d="M25.3886 0C11.3611 0 0 11.5344 0 25.7758C0 37.8893 8.18701 47.943 19.2327 50.7772C19.1052 50.4547 19.0425 50.0028 19.0425 49.5531V45.1701H15.8684C14.155 45.1701 12.5668 44.398 11.8689 42.9787C11.0435 41.4321 10.916 39.0476 8.82227 37.5646C8.18701 37.0491 8.69479 36.5336 9.3927 36.5972C10.7259 36.9833 11.8041 37.8871 12.8196 39.2384C13.8352 40.5919 14.2803 40.9144 16.1839 40.9144C17.0719 40.9144 18.4678 40.8508 19.7383 40.6555C20.4362 38.8501 21.6419 37.24 23.1025 36.4678C14.5979 35.4368 10.5357 31.1832 10.5357 25.3831C10.5357 22.8692 11.6139 20.4846 13.3922 18.4226C12.8218 16.4241 12.059 12.3 13.6472 10.6898C17.4566 10.6898 19.7404 13.2038 20.3109 13.8465C22.2145 13.2016 24.3104 12.8155 26.4668 12.8155C28.688 12.8155 30.7191 13.2016 32.6227 13.8465C33.1932 13.2016 35.4792 10.6898 39.2864 10.6898C40.8097 12.2364 40.1118 16.4241 39.4766 18.4226C41.2549 20.421 42.2704 22.8692 42.2704 25.3831C42.2704 31.1832 38.2709 35.4368 29.8311 36.3384C32.1798 37.5625 33.8306 41.0416 33.8306 43.6192V49.4895C33.8306 49.6826 33.7679 49.8756 33.7679 50.0686C43.6684 46.5895 50.7772 37.0535 50.7772 25.7758C50.7772 11.5344 39.4161 0 25.3886 0Z" fill="black"/>
</svg>
