<svg width="35" height="36" viewBox="0 0 35 36" fill="none" xmlns="http://www.w3.org/2000/svg">
<path d="M17.4195 35.675C27.04 35.675 34.839 27.6889 34.839 17.8375C34.839 7.98613 27.04 0 17.4195 0C7.79898 0 0 7.98613 0 17.8375C0 27.6889 7.79898 35.675 17.4195 35.675Z" fill="black"/>
<path d="M17.4235 0C7.79683 0 0 7.98535 0 17.8448C0 26.2311 5.61854 33.1913 13.1989 35.1534C13.1114 34.9302 13.0684 34.6173 13.0684 34.306V31.2716H10.8901C9.71422 31.2716 8.62427 30.7371 8.14532 29.7545C7.57887 28.6838 7.49137 27.033 6.0545 26.0063C5.61854 25.6494 5.96701 25.2925 6.44597 25.3365C7.36091 25.6038 8.10085 26.2295 8.79776 27.165C9.49474 28.1021 9.80021 28.3254 11.1066 28.3254C11.716 28.3254 12.674 28.2813 13.5459 28.1461C14.0248 26.8962 14.8523 25.7815 15.8547 25.2469C10.0182 24.5332 7.23038 21.5884 7.23038 17.5729C7.23038 15.8325 7.97032 14.1816 9.19073 12.7541C8.79927 11.3705 8.27578 8.51538 9.36572 7.40063C11.98 7.40063 13.5473 9.14109 13.9389 9.58604C15.2452 9.13957 16.6836 8.87227 18.1635 8.87227C19.6878 8.87227 21.0817 9.13957 22.3881 9.58604C22.7796 9.13957 24.3485 7.40063 26.9613 7.40063C28.0067 8.47135 27.5277 11.3705 27.0918 12.7541C28.3122 14.1376 29.0091 15.8325 29.0091 17.5729C29.0091 21.5884 26.2643 24.5332 20.4723 25.1574C22.0842 26.0048 23.2171 28.4134 23.2171 30.1979V34.262C23.2171 34.3956 23.174 34.5293 23.174 34.6629C29.9685 32.2543 34.8471 25.6524 34.8471 17.8448C34.8471 7.98535 27.0503 0 17.4235 0Z" fill="white"/>
</svg>
