<svg width="70" height="70" viewBox="0 0 70 70" fill="none" xmlns="http://www.w3.org/2000/svg">
<path d="M62.7006 50.7392C61.8908 51.0464 60.9967 51.0458 60.1873 50.7374C59.3779 50.4291 58.7093 49.8345 58.3078 49.0659C55.7866 45.2854 53.0025 41.6753 50.3266 37.9877L49.1665 36.4384C45.9802 40.7147 42.7939 44.8206 39.886 49.0814C39.5071 49.8159 38.8746 50.3875 38.1063 50.6896C37.338 50.9918 36.4863 51.0039 35.7097 50.7237L47.6662 34.6566L36.545 20.1388C37.3455 19.8492 38.2213 19.8453 39.0244 20.1276C39.8275 20.4098 40.5088 20.9611 40.9532 21.6882C43.5363 25.4687 46.3978 29.0788 49.2438 32.9058C52.1053 29.1098 54.9359 25.4842 57.5809 21.7347C57.9618 21.0121 58.5947 20.4549 59.359 20.1692C60.1233 19.8836 60.9658 19.8893 61.7262 20.1853L57.4107 25.918C55.4773 28.4745 53.5748 31.0465 51.564 33.541C51.402 33.6863 51.2723 33.8642 51.1836 34.0631C51.0949 34.262 51.049 34.4774 51.049 34.6953C51.049 34.9132 51.0949 35.1286 51.1836 35.3275C51.2723 35.5264 51.402 35.7043 51.564 35.8496C55.2607 40.7612 58.9265 45.6882 62.7006 50.7392Z" fill="black"/>
<path d="M7.06396 34.4551C7.38878 32.9057 7.58986 31.2169 8.03842 29.6365C10.7143 20.1078 21.619 16.1413 29.1207 22.0445C33.5135 25.4996 34.6117 30.3957 34.3952 35.9115H9.64705C9.24489 45.7656 16.3445 51.7153 25.424 48.6785C26.8968 48.1508 28.2152 47.2639 29.2603 46.0981C30.3054 44.9322 31.0441 43.524 31.4099 42.0006C31.8894 40.4512 32.6628 40.1878 34.1322 40.6372C33.8902 42.5234 33.2244 44.3301 32.1849 45.9215C31.1454 47.5129 29.7593 48.8475 28.1308 49.825C25.4401 51.2989 22.353 51.8829 19.3109 51.4933C16.2689 51.1037 13.4278 49.7605 11.1938 47.6559C8.98373 45.1667 7.64741 42.0216 7.38878 38.7004C7.38878 38.1736 7.18771 37.6468 7.07943 37.151C7.06912 36.2317 7.06396 35.3331 7.06396 34.4551ZM9.67798 33.7889H32.0596C31.9204 26.6462 27.4193 21.5797 21.4179 21.5332C14.7359 21.4402 9.9564 26.3983 9.66252 33.7579L9.67798 33.7889Z" fill="black"/>
</svg>
