<svg width="70" height="70" viewBox="0 0 70 70" fill="none" xmlns="http://www.w3.org/2000/svg">
<path fill-rule="evenodd" clip-rule="evenodd" d="M36.4234 65.5905L34.7589 65.0205C34.7589 65.0205 34.9622 56.5194 31.9165 55.9094C29.8868 53.5498 32.2421 -44.1561 39.5505 55.5836C39.5505 55.5836 37.0328 56.8443 36.5862 59.0007C36.0987 61.116 36.4234 65.5905 36.4234 65.5905Z" fill="white"/>
<path fill-rule="evenodd" clip-rule="evenodd" d="M36.4234 65.5905L34.7589 65.0205C34.7589 65.0205 34.9622 56.5194 31.9165 55.9094C29.8868 53.5498 32.2421 -44.1561 39.5505 55.5836C39.5505 55.5836 37.0328 56.8443 36.5862 59.0007C36.0987 61.116 36.4234 65.5905 36.4234 65.5905Z" fill="#A6A385"/>
<path fill-rule="evenodd" clip-rule="evenodd" d="M37.3169 57.3737C37.3169 57.3737 51.8941 47.7737 48.4828 27.801C45.1942 13.28 37.4388 8.52074 36.5861 6.69013C35.6524 5.38847 34.7588 3.1109 34.7588 3.1109L35.3682 43.5024C35.3682 43.5434 34.1094 55.8684 37.3174 57.3741" fill="white"/>
<path fill-rule="evenodd" clip-rule="evenodd" d="M37.3169 57.3737C37.3169 57.3737 51.8941 47.7737 48.4828 27.801C45.1942 13.28 37.4388 8.52074 36.5861 6.69013C35.6524 5.38847 34.7588 3.1109 34.7588 3.1109L35.3682 43.5024C35.3682 43.5434 34.1094 55.8684 37.3174 57.3741" fill="#499D4A"/>
<path fill-rule="evenodd" clip-rule="evenodd" d="M33.9065 57.9022C33.9065 57.9022 20.2225 48.5464 21.0348 32.0727C21.8061 15.5985 31.4698 7.50384 33.3376 6.03953C34.5559 4.73787 34.5964 4.24947 34.6778 2.94781C35.5305 4.77842 35.3681 30.3236 35.4896 33.3333C35.8548 44.9262 34.8401 55.7062 33.9065 57.9022Z" fill="white"/>
<path fill-rule="evenodd" clip-rule="evenodd" d="M33.9065 57.9022C33.9065 57.9022 20.2225 48.5464 21.0348 32.0727C21.8061 15.5985 31.4698 7.50384 33.3376 6.03953C34.5559 4.73787 34.5964 4.24947 34.6778 2.94781C35.5305 4.77842 35.3681 30.3236 35.4896 33.3333C35.8548 44.9262 34.8401 55.7062 33.9065 57.9022Z" fill="#58AA50"/>
</svg>
