<svg width="70" height="70" viewBox="0 0 70 70" fill="none" xmlns="http://www.w3.org/2000/svg">
<path d="M35 63.0813C34.2236 63.0813 33.499 62.8752 32.8261 62.5146L25.942 58.4444C24.9068 57.8776 25.4244 57.6715 25.735 57.5685C27.1325 57.1048 27.3913 57.0018 28.8406 56.1774C28.9959 56.0744 29.2029 56.1259 29.3582 56.2289L34.6377 59.3717C34.8447 59.4748 35.1035 59.4748 35.2588 59.3717L55.911 47.4702C56.118 47.3672 56.2215 47.1611 56.2215 46.9035V23.152C56.2215 22.8944 56.118 22.6883 55.911 22.5853L35.2588 10.7353C35.0518 10.6323 34.793 10.6323 34.6377 10.7353L13.9855 22.5853C13.7785 22.6883 13.6749 22.9459 13.6749 23.152V46.9035C13.6749 47.1096 13.7785 47.3672 13.9855 47.4702L19.6273 50.7161C22.6812 52.2618 24.5963 50.4585 24.5963 48.6552V25.2129C24.5963 24.9038 24.8551 24.5946 25.2174 24.5946H27.8571C28.1677 24.5946 28.4783 24.8522 28.4783 25.2129V48.6552C28.4783 52.7255 26.2526 55.0955 22.3706 55.0955C21.1801 55.0955 20.2484 55.0955 17.6087 53.8074L12.1739 50.7161C10.8282 49.9433 10 48.5007 10 46.955V23.2036C10 21.6579 10.8282 20.2153 12.1739 19.4425L32.8261 7.54098C34.1201 6.81967 35.8799 6.81967 37.1739 7.54098L57.8261 19.4425C59.1718 20.2153 60 21.6579 60 23.2036V46.955C60 48.5007 59.1718 49.9433 57.8261 50.7161L37.1739 62.6176C36.501 62.9267 35.7246 63.0813 35 63.0813ZM41.3665 46.7489C32.3085 46.7489 30.4451 42.6272 30.4451 39.1237C30.4451 38.8146 30.7039 38.5055 31.0663 38.5055H33.7578C34.0683 38.5055 34.3271 38.7116 34.3271 39.0207C34.7412 41.7513 35.9317 43.0909 41.4182 43.0909C45.766 43.0909 47.6294 42.112 47.6294 39.7935C47.6294 38.454 47.1118 37.475 40.3313 36.8053C34.6894 36.2385 31.1698 35.002 31.1698 30.5196C31.1698 26.3464 34.6894 23.8733 40.5901 23.8733C47.2153 23.8733 50.4762 26.1403 50.8903 31.0864C50.8903 31.2409 50.8385 31.3955 50.735 31.5501C50.6315 31.6531 50.4762 31.7561 50.3209 31.7561H47.6294C47.3706 31.7561 47.1118 31.5501 47.06 31.2925C46.4389 28.4588 44.8344 27.5314 40.5901 27.5314C35.8282 27.5314 35.2588 29.1801 35.2588 30.4166C35.2588 31.9107 35.9317 32.3744 42.3499 33.1988C48.7164 34.0231 51.7184 35.2081 51.7184 39.639C51.6667 44.1729 47.94 46.7489 41.3665 46.7489Z" fill="#539E43"/>
</svg>
