<svg width="70" height="70" viewBox="0 0 70 70" fill="none" xmlns="http://www.w3.org/2000/svg">
<path d="M35.0003 40.3939C38.058 40.3939 40.5367 37.9564 40.5367 34.9496C40.5367 31.9428 38.058 29.5054 35.0003 29.5054C31.9426 29.5054 29.4639 31.9428 29.4639 34.9496C29.4639 37.9564 31.9426 40.3939 35.0003 40.3939Z" fill="#00D8FF"/>
<path fill-rule="evenodd" clip-rule="evenodd" d="M35.0004 23.8803C42.4338 23.8803 49.3392 24.9292 54.5459 26.6918C60.8192 28.8156 64.6763 32.0347 64.6763 34.9496C64.6763 37.9872 60.5886 41.407 53.8519 43.6019C48.7588 45.2612 42.0566 46.1274 35.0004 46.1274C27.7659 46.1274 20.9151 45.3144 15.7646 43.5837C9.24833 41.3935 5.32349 37.9293 5.32349 34.9496C5.32349 32.0584 9.0062 28.8641 15.1913 26.7436C20.4174 24.9519 27.4934 23.8803 34.9994 23.8803H35.0004Z" stroke="#00D8FF" stroke-width="2.73408"/>
<path fill-rule="evenodd" clip-rule="evenodd" d="M25.2012 29.4469C28.9148 23.1148 33.2884 17.7564 37.4423 14.2016C42.4471 9.91866 47.2099 8.24134 49.7777 9.69739C52.4537 11.2149 53.4242 16.4056 51.9923 23.2406C50.9108 28.4082 48.3246 34.5499 44.7995 40.5608C41.1852 46.7236 37.0467 52.1532 32.9493 55.6749C27.7646 60.1317 22.7521 61.7446 20.1272 60.256C17.5801 58.8126 16.606 54.0789 17.8279 47.7506C18.8603 42.4037 21.4513 35.8408 25.2 29.4468L25.2012 29.4469Z" stroke="#00D8FF" stroke-width="2.73408"/>
<path fill-rule="evenodd" clip-rule="evenodd" d="M25.2103 40.5769C21.4862 34.252 18.9507 27.8486 17.8924 22.5345C16.6184 16.1317 17.5191 11.2362 20.0846 9.77595C22.7579 8.25403 27.8158 10.0195 33.1225 14.653C37.1347 18.1561 41.2547 23.4256 44.7901 29.4308C48.4147 35.5876 51.1314 41.8252 52.1882 47.0746C53.5254 53.7176 52.4431 58.7933 49.8206 60.2862C47.276 61.7347 42.6196 60.2011 37.6545 55.9995C33.4594 52.4497 28.9712 46.9647 25.2103 40.5768V40.5769Z" stroke="#00D8FF" stroke-width="2.73408"/>
</svg>
